# xmcd
#
# Track frame offsets: 
#        150
#        12589
#        29035
#        46102
#        64554
#        77536
#        94348
#        111318
#        128907
#        143849
#        164015
#        174659
#        189126
#        204316
#
# Disc length: 2901 seconds
#
# Revision: 2
# Processed by: cddbd v1.5.2PL0 Copyright (c) Steve Scherf et al.
# Submitted via: ExactAudioCopy v1.0b4
#
DISCID=be0b530e
DTITLE=The Reverend Peyton's Big Damn Band - Between the Ditches
DYEAR=2012
DGENRE=Blues
TTITLE0=Devils Look Like Angels
TTITLE1=Something For Nothing
TTITLE2=We'll Get Through
TTITLE3=Big Blue Chevy '72
TTITLE4=Shut the Screen
TTITLE5=Shake 'Em Off Like Fleas
TTITLE6=Easy Come Easy Go
TTITLE7=I Don't Know
TTITLE8=Don't Grind It Down
TTITLE9=The Money Goes
TTITLE10=Move Along Mister
TTITLE11=Between the Ditches
TTITLE12=Brokedown Everywhere
TTITLE13=Brown County Bound
EXTD=
EXTT0=
EXTT1=
EXTT2=
EXTT3=
EXTT4=
EXTT5=
EXTT6=
EXTT7=
EXTT8=
EXTT9=
EXTT10=
EXTT11=
EXTT12=
EXTT13=
PLAYORDER=
